<svg version="1.1" preserveAspectRatio="none" xmlns="http://www.w3.org/2000/svg" width="500" height="500" viewBox="0 0 500 500"><rect width="100%" height="100%" fill="#0F2D49" fill-opacity="1"/><svg viewBox="391.8301 423.0913 129.6875 120" width="333" height="308.12530120481927" x="83.5px" y="95.9373px" xmlns="http://www.w3.org/2000/svg" xmlns:xlink="http://www.w3.org/1999/xlink" preserveAspectRatio="none"><defs></defs><style>.companyName {fill:#CCBF90;fill-opacity:1;}.icon3-str {stroke:#EB63DD;stroke-opacity:1;}.shapeStroke-str {stroke:#CCBF90;stroke-opacity:1;}</style><g opacity="1" transform="rotate(0 408.8301 423.0913)">
<svg width="112.6875" height="120" x="408.8301" y="423.0913" version="1.1" preserveAspectRatio="none" viewBox="1.36 -28.32 27.12 28.88">
  <g transform="matrix(1 0 0 1 0 0)" class="companyName"><path id="id-D6z1nYkh1" d="M27.92-2.24L28.48-1.76Q27.40-0.52 26.16 0.02Q24.92 0.56 23.16 0.56L23.16 0.56Q20.84 0.56 19.50-0.42Q18.16-1.40 17.76-3.76L17.76-3.76L17.04-7.76Q16.52-10.68 15.78-12.06Q15.04-13.44 13.32-13.44L13.32-13.44L10.72-13.44L10.72-4.24Q10.72-2.72 10.94-2.04Q11.16-1.36 11.76-1.12Q12.36-0.88 13.72-0.80L13.72-0.80L13.72 0Q11.56-0.12 7.68-0.12L7.68-0.12Q3.40-0.12 1.36 0L1.36 0L1.36-0.80Q2.68-0.88 3.30-1.12Q3.92-1.36 4.14-2.04Q4.36-2.72 4.36-4.24L4.36-4.24L4.36-24.08Q4.36-25.60 4.14-26.28Q3.92-26.96 3.30-27.20Q2.68-27.44 1.36-27.52L1.36-27.52L1.36-28.32Q3.40-28.20 7.44-28.20L7.44-28.20L11.88-28.24Q12.68-28.28 13.72-28.28L13.72-28.28Q19.24-28.28 22.02-26.48Q24.80-24.68 24.80-21.32L24.80-21.32Q24.80-18.48 22.72-16.32Q20.64-14.16 15.84-13.60L15.84-13.60Q19.44-13.28 21.20-12.04Q22.96-10.80 23.48-8.32L23.48-8.32L24.40-4.20Q24.72-2.60 25.14-1.96Q25.56-1.32 26.32-1.32L26.32-1.32Q26.80-1.36 27.14-1.56Q27.48-1.76 27.92-2.24L27.92-2.24ZM13.20-27.52Q12.12-27.52 11.62-27.24Q11.12-26.96 10.92-26.24Q10.72-25.52 10.72-24.08L10.72-24.08L10.72-14.24L12.44-14.24Q15.72-14.24 16.94-15.98Q18.16-17.72 18.16-20.88L18.16-20.88Q18.16-24.16 17-25.84Q15.84-27.52 13.20-27.52L13.20-27.52Z"/></g>
</svg>
</g><g opacity="1" transform="rotate(0 391.8301 423.0913)">
<svg width="3" height="120" x="391.8301" y="423.0913" version="1.1" preserveAspectRatio="none" viewBox="0 0 3 120">
  <defs><rect x="0" y="0" width="3" height="120" rx="0px" ry="0px" id="id-tBXipXk0b1684809480099"></rect></defs><use class="companyName shapeStroke-str" style="stroke-width:0;" xlink:href="#id-tBXipXk0b1684809480099"></use>
</svg>
</g></svg></svg>